<?xml version="1.0" encoding="UTF-8"?>
<!DOCTYPE svg PUBLIC "-//W3C//DTD SVG 1.1//EN" "http://www.w3.org/Graphics/SVG/1.1/DTD/svg11.dtd">
<svg enable-background="new 0 0 80 79.999" height="79.999px" id="Layer_1" version="1.1" viewBox="0 0 80 79.999" width="80px" xml:space="preserve" xmlns="http://www.w3.org/2000/svg" xmlns:xlink="http://www.w3.org/1999/xlink"><path d="M63.757,46.3c3.948,4.538,5.482,8.265,4.479,10.002c-0.607,1.053-2.641,1.681-5.439,1.681c0,0,0,0-0.001,0  c-1.654,0-3.52-0.211-5.531-0.603c-0.384,2.044-0.832,4-1.345,5.85c2.476,0.492,4.791,0.753,6.876,0.753c0.001,0,0.001,0,0.001,0  c6.556,0,9.401-2.545,10.636-4.681c2.71-4.695,0.152-10.871-5.269-17.065C66.802,43.611,65.327,44.969,63.757,46.3z M59.356,34.023  c-3.506-2.761-7.401-5.386-11.448-7.723c-4.142-2.392-8.328-4.423-12.369-6.035c-0.492,1.846-0.915,3.853-1.263,5.974  c3.486,1.443,7.088,3.211,10.632,5.257c3.745,2.162,7.057,4.393,9.929,6.595C56.573,36.671,58.069,35.309,59.356,34.023z   M16.239,33.697c-3.947-4.537-5.479-8.264-4.478-10c0.607-1.053,2.642-1.681,5.44-1.681c1.65,0,3.512,0.211,5.518,0.601  c0.382-2.046,0.831-4.001,1.342-5.852c-2.469-0.489-4.779-0.749-6.859-0.749c-6.557,0-9.402,2.545-10.637,4.681  c-2.71,4.695-0.153,10.87,5.268,17.064C13.194,36.386,14.669,35.028,16.239,33.697z M48.227,56.964  c-2.009,9.86-5.528,15.64-8.228,15.64c-2.014,0-4.484-3.216-6.444-8.942c-1.936,0.682-3.854,1.273-5.733,1.758  c2.652,7.843,6.733,13.185,12.178,13.185c8.035,0,13.104-11.629,14.986-25.775c-1.823,1.215-3.689,2.378-5.577,3.468  C49.017,56.522,48.622,56.743,48.227,56.964z M73.432,20.695c-1.233-2.134-4.079-4.679-10.636-4.679  c-5.281,0-12.022,1.654-19.174,4.595c1.938,0.959,3.87,1.985,5.786,3.092c0.4,0.231,0.789,0.474,1.185,0.71  c4.609-1.54,8.836-2.396,12.203-2.396c2.799,0,4.833,0.628,5.439,1.679c2.001,3.468-6.092,14.855-23.327,24.809  c-10.128,5.847-20.743,9.479-27.703,9.479h-0.002c-2.8,0-4.833-0.629-5.44-1.681c-1.35-2.338,1.901-8.283,9.448-14.96  c-0.007-0.449-0.03-0.893-0.03-1.343c0-2.19,0.067-4.382,0.199-6.552C10.078,42.15,2.552,52.347,6.566,59.302  c1.232,2.135,4.079,4.68,10.636,4.681c0,0,0.001,0,0.002,0c8.073,0,19.552-3.845,30.704-10.284  C64.521,44.106,78.622,29.689,73.432,20.695z M30.923,51.865c-0.469-3.58-0.742-7.553-0.742-11.865  c0-19.903,5.815-32.604,9.818-32.604c2.014,0,4.485,3.217,6.445,8.945c1.936-0.682,3.854-1.273,5.733-1.759  C49.524,6.738,45.443,1.395,39.999,1.395C29.614,1.395,24.181,20.816,24.181,40c0,4.653,0.322,9.317,0.955,13.718  C26.898,53.253,28.828,52.649,30.923,51.865z M39.846,33.999c-3.313,0-6,2.687-6,6s2.687,6,6,6s6-2.687,6-6  S43.159,33.999,39.846,33.999z" fill="#333F4F"/></svg>