<?xml version="1.0" ?><!DOCTYPE svg  PUBLIC '-//W3C//DTD SVG 1.1//EN'  'http://www.w3.org/Graphics/SVG/1.1/DTD/svg11.dtd'><svg enable-background="new 0 0 512 512" height="512px" id="Слой_1" version="1.1" viewBox="0 0 512 512" width="512px" xml:space="preserve" xmlns="http://www.w3.org/2000/svg" xmlns:xlink="http://www.w3.org/1999/xlink"><g id="Cloud_Server"><g><rect fill="#303842" height="92.473" width="36.332" x="237.835" y="375.824"/><rect fill="#434A54" height="92.48" width="18.166" x="256.001" y="377.637"/></g><g><path d="M430.358,144.273c-16.422-63.082-73.773-109.656-142-109.656c-62.104,0-115.197,38.59-136.611,93.094    c-7.193-2.26-14.846-3.482-22.787-3.482c-41.932,0-75.926,33.994-75.926,75.93c0,3.525,0.26,7,0.727,10.4    c-31.779,15.094-53.76,47.473-53.76,84.992c0,51.535,41.459,93.367,92.846,94.012c0,0,291.957,0.027,292.355,0.027    c70.031,0,126.797-56.773,126.797-126.797C511.999,208.664,478.085,162.473,430.358,144.273z" fill="#E6E9ED"/><g><rect fill="#303842" height="224.924" width="309.967" x="101.021" y="103.588"/><g><rect fill="#434A54" height="70.219" width="309.967" x="101.021" y="258.293"/><g><polygon fill="#303842" points="153.448,307.414 124.155,307.414 142.382,287.168 171.667,287.168      "/><polygon fill="#303842" points="200.954,307.414 171.667,307.414 189.888,287.168 219.175,287.168      "/><polygon fill="#303842" points="248.468,307.414 219.181,307.414 237.401,287.168 266.687,287.168      "/></g><path d="M378.487,297.293c0-7.375-5.98-13.355-13.355-13.355c-7.371,0-13.344,5.98-13.344,13.355      c0,7.371,5.973,13.352,13.344,13.352C372.507,310.645,378.487,304.664,378.487,297.293z" fill="#4A89DC"/></g><g><rect fill="#434A54" height="70.217" width="309.967" x="101.021" y="180.941"/><g><polygon fill="#303842" points="153.448,230.064 124.155,230.064 142.382,209.818 171.667,209.818      "/><polygon fill="#303842" points="200.954,230.064 171.667,230.064 189.888,209.818 219.175,209.818      "/><polygon fill="#303842" points="248.468,230.064 219.181,230.064 237.401,209.818 266.687,209.818      "/></g><path d="M378.487,219.941c0-7.373-5.98-13.354-13.355-13.354c-7.371,0-13.344,5.98-13.344,13.354      s5.973,13.352,13.344,13.352C372.507,233.293,378.487,227.314,378.487,219.941z" fill="#4A89DC"/></g><polygon fill="#303842" points="369.366,54.438 142.634,54.438 101.021,103.588 410.987,103.588    "/><g><rect fill="#434A54" height="70.221" width="309.967" x="101.021" y="103.588"/><g><polygon fill="#303842" points="153.448,152.715 124.155,152.715 142.382,132.465 171.667,132.465      "/><polygon fill="#303842" points="200.954,152.715 171.667,152.715 189.888,132.465 219.175,132.465      "/><polygon fill="#303842" points="248.468,152.715 219.181,152.715 237.401,132.465 266.687,132.465      "/></g><path d="M378.487,142.592c0-7.373-5.98-13.354-13.355-13.354c-7.371,0-13.344,5.98-13.344,13.354      s5.973,13.35,13.344,13.35C372.507,155.941,378.487,149.965,378.487,142.592z" fill="#4A89DC"/></g></g><path d="M394.21,263.734c-28.559,0-52.793,18.238-61.867,43.676c-10.832-7.359-23.883-11.688-37.969-11.688    c-17.227,0-32.914,6.473-44.869,17.07c-13.467-35.355-47.668-60.48-87.744-60.48c-51.854,0-93.893,42.031-93.893,93.887    c0,3.57,0.227,7.086,0.613,10.547h88.16v20.051h93.873c3.313-9.598,5.133-19.879,5.133-30.598c0-2.105-0.094-4.184-0.23-6.254    h73.914c0.012,0.098,0.02,0.199,0.035,0.301h129.68c0.582-3.508,0.895-7.105,0.895-10.777    C459.94,293.164,430.507,263.734,394.21,263.734z" fill="#CBD0D8"/><path d="M470.581,339.344c0-36.305-29.434-65.73-65.738-65.73c-32.797,0-59.906,24.039-64.852,55.445    c-12.039-10.992-28.031-17.727-45.617-17.727c-17.141,0-32.77,6.406-44.697,16.914c-17.926-32.563-52.553-54.629-92.35-54.629    c-55.246,0-100.539,42.52-105,96.617h58.113v6.563h299.188v-20.102h58.621C469.761,351.164,470.581,345.352,470.581,339.344z" fill="#E6E9ED"/></g><g><g><rect fill="#303842" height="36.336" width="315.527" x="98.241" y="441.047"/><rect fill="#434A54" height="18.168" width="315.527" x="98.241" y="459.215"/></g><rect fill="#CBD0D8" height="36.336" width="70.246" x="220.882" y="441.047"/><rect fill="#E6E9ED" height="18.168" width="70.246" x="220.882" y="459.215"/></g></g></svg>